<svg width="184" height="65" viewBox="0 0 184 65" fill="none" xmlns="http://www.w3.org/2000/svg">
<path fill-rule="evenodd" clip-rule="evenodd" d="M165.443 33.8252H171.59L177.345 46.3204H173.156L172.06 44.2168H164.934L163.838 46.3204H159.649L165.443 33.8252ZM135.416 36.7702V37.6958V43.2492V46.3204H139.018V43.2492V35.1294V33.8252H133.146L126.999 43.0809C126.96 43.2071 126.921 43.2913 126.843 43.4175V42.4498V37.9903V33.8252H123.241V37.9903V45.3948V46.3204H129.113L135.26 37.0647C135.338 36.9806 135.377 36.8544 135.416 36.7702ZM168.81 36.644H168.262L166.305 40.9773H170.728L168.81 36.644ZM143.05 33.8252H146.652V38.2006H148.531L152.603 33.8252H157.535L151.702 39.7994L158.279 46.3625H153.072L148.531 41.4822H146.652V46.3625H143.05V33.8252ZM104.997 33.8252H108.599V38.2006H116.351V33.8252H119.952V46.3204H116.351V41.4401H108.599V46.3204H104.997V33.8252ZM86.8715 33.7832L92.1957 39.9256L86.8715 46.3204H91.6868L95.2102 42.1133L98.7336 46.3204H103.549L98.2247 39.9256L103.549 33.7832H98.577L95.2102 37.822L91.8434 33.7832H86.8715ZM72.3864 46.3204V33.7832H84.9532V36.8123H75.9881V38.5793H84.5617V41.6084H75.9881V43.3333H84.9532V46.3625H72.3864V46.3204ZM56.3745 37.0227V33.7832H70.2332V37.0227H65.1047V46.3204H61.503V37.0227H56.3745Z" fill="#2A5275"/>
<path fill-rule="evenodd" clip-rule="evenodd" d="M156.674 15.2298V10.3495H177.384V15.1877H169.711V29.0712H164.347V15.1877H156.674V15.2298ZM78.2587 10.4337V29.1553H83.6221V16.0291L90.6689 29.1553H95.0536L101.631 16.0291V29.1553H106.328L108.403 21.0777L106.603 21.0356L108.677 10.4337H97.8723L93.2919 20.9094H92.4698L87.8893 10.4337H78.2587V10.4337ZM66.5923 24.9061C69.1762 24.9061 70.6638 24.8641 71.0553 24.7799C71.4468 24.6958 71.6817 24.3592 71.6817 23.7702C71.6817 23.055 71.4076 22.5922 70.8204 22.4239C70.2332 22.2557 68.8238 22.1294 66.5923 22.1294C62.1294 22.1294 59.3106 21.7929 58.1362 21.0777C56.9617 20.3625 56.3745 18.6375 56.3745 15.9029C56.3745 13.3366 57.1183 11.7379 58.6451 11.0227C59.8196 10.4757 62.4034 10.2233 66.4357 10.2233C70.0374 10.2233 72.3081 10.3074 73.2476 10.5178C75.0485 10.8964 76.1447 12.2848 76.497 14.7249H66.5532H66.4357C64.0085 14.7249 62.6383 14.767 62.2468 14.8511C61.8553 14.9353 61.6987 15.3139 61.6987 15.9029C61.6987 16.534 62.0119 16.9547 62.6383 17.165C63.2647 17.3754 64.5566 17.4595 66.5532 17.4595C70.977 17.4595 73.7957 17.8382 75.0876 18.5955C76.3796 19.3528 77.0059 21.0777 77.0059 23.7702C77.0059 26.2524 76.3013 27.8511 74.8527 28.5663C73.6 29.1553 70.8596 29.4498 66.514 29.4498C63.1864 29.4498 61.0332 29.3657 60.0545 29.1974C58.5276 28.945 57.4706 28.3981 56.9225 27.4725C56.5702 26.8835 56.3353 26.0421 56.1787 24.9061H66.3966H66.5923V24.9061ZM115.568 10.4337H124.963L133.576 29.1133H127.312L125.668 25.9579H115.059L113.414 29.1133H107.151L107.19 29.0291L114.315 18.3851L111.066 18.1748L115.568 10.4337ZM120.735 14.6408H119.913L117.016 21.1197H123.632L120.735 14.6408ZM134.281 10.3495H149.862C151.78 10.3495 153.151 10.7282 153.934 11.4854C154.795 12.2848 155.226 13.7573 155.226 15.8188C155.226 17.4175 155.03 18.6375 154.677 19.3948C154.325 20.1521 153.699 20.7411 152.798 21.1197C153.777 21.5825 154.403 22.0453 154.717 22.466C155.03 22.9288 155.186 23.7282 155.186 24.9061V29.1133H149.823V25.7476C149.823 25.2427 149.705 24.8641 149.471 24.5275C149.157 24.1068 148.688 23.8544 148.1 23.8544H139.644V29.0712H134.281V10.3495ZM139.605 15.2298V19.0583H148.218C148.805 19.0583 149.236 18.932 149.471 18.6375C149.705 18.3851 149.862 17.8803 149.862 17.165C149.862 16.4498 149.745 15.945 149.471 15.6505C149.197 15.356 148.805 15.2298 148.218 15.2298H139.605Z" fill="#4878A6"/>
<path fill-rule="evenodd" clip-rule="evenodd" d="M10.1396 14.4725L16.9515 10.2654L26.1906 4.54369L35.4298 10.2654L44.6689 15.9871V22.6343L39.3055 19.3107L26.1906 11.1489L15.503 17.7961L10.1396 14.4725ZM7.71234 18.9741V25.7896L26.5038 37.4434L31.7498 33.8673L7.71234 18.9741Z" fill="#4878A6"/>
<path fill-rule="evenodd" clip-rule="evenodd" d="M42.2417 40.3884L35.4298 44.5955L26.1906 50.3172L16.9515 44.5955L7.71234 38.8738V32.2265L13.0757 35.5502L26.1906 43.6699L36.8783 37.0227L42.2417 40.3884ZM30.6928 20.3625L26.3081 17.6278L21.1404 20.8252L24.4289 22.8867L43.2204 34.5405L44.7081 35.466V29.0291L43.2204 28.1036L30.6928 20.3625Z" fill="#2A5275"/>
</svg>
