<svg width="28" height="24" viewBox="0 0 28 24" fill="none" xmlns="http://www.w3.org/2000/svg">
<g filter="url(#filter0_d_2136_3537)">
<path d="M23.6 1.89999C22.9 2.19999 22.1 2.4 21.3 2.5C22.1 2 22.8 1.2 23.1 0.300003C22.3 0.800003 21.5 1.1 20.5 1.3C19.8 0.500003 18.7 0 17.6 0C15.4 0 13.6 1.8 13.6 4C13.6 4.3 13.6 4.59999 13.7 4.89999C10.4 4.69999 7.39999 3.1 5.39999 0.699997C5.09999 1.3 4.89999 2 4.89999 2.7C4.89999 4.1 5.6 5.3 6.7 6C6 6 5.39999 5.8 4.89999 5.5C4.89999 7.4 6.29999 9.09999 8.09999 9.39999C7.79999 9.49999 7.4 9.5 7 9.5C6.7 9.5 6.5 9.49999 6.2 9.39999C6.7 11 8.2 12.2 10 12.2C8.6 13.3 6.9 13.9 5 13.9C4.7 13.9 4.4 13.9 4 13.8C5.8 14.9 7.9 15.6 10.2 15.6C17.6 15.6 21.6 9.5 21.6 4.2V3.7C22.4 3.4 23.1 2.69999 23.6 1.89999Z" fill="#4878A6"/>
</g>
<defs>
<filter id="filter0_d_2136_3537" x="0" y="0" width="27.6" height="23.6001" filterUnits="userSpaceOnUse" color-interpolation-filters="sRGB">
<feFlood flood-opacity="0" result="BackgroundImageFix"/>
<feColorMatrix in="SourceAlpha" type="matrix" values="0 0 0 0 0 0 0 0 0 0 0 0 0 0 0 0 0 0 127 0" result="hardAlpha"/>
<feOffset dy="4"/>
<feGaussianBlur stdDeviation="2"/>
<feComposite in2="hardAlpha" operator="out"/>
<feColorMatrix type="matrix" values="0 0 0 0 0 0 0 0 0 0 0 0 0 0 0 0 0 0 0.25 0"/>
<feBlend mode="normal" in2="BackgroundImageFix" result="effect1_dropShadow_2136_3537"/>
<feBlend mode="normal" in="SourceGraphic" in2="effect1_dropShadow_2136_3537" result="shape"/>
</filter>
</defs>
</svg>
