<svg width="970" height="187" viewBox="0 0 970 187" fill="none" xmlns="http://www.w3.org/2000/svg">
<path d="M-257.886 209.61C-257.768 209.36 -257.875 209.062 -258.125 208.945C-258.375 208.827 -258.673 208.934 -258.79 209.184L-257.886 209.61ZM-34.7682 398.905L-34.8335 399.4L-34.7682 398.905ZM745.23 361.939L745.042 362.401L745.23 361.939ZM1156.69 449.445C1156.86 449.223 1156.81 448.91 1156.59 448.745C1156.37 448.581 1156.05 448.627 1155.89 448.849L1156.69 449.445ZM-38.5546 18.3154C-38.8232 18.3799 -38.9886 18.6498 -38.9241 18.9183C-38.8597 19.1868 -38.5897 19.3522 -38.3212 19.2878L-38.5546 18.3154ZM389.828 51.0958L389.613 51.5471L389.828 51.0958ZM959.385 166.421C959.654 166.36 959.824 166.093 959.763 165.823C959.703 165.554 959.435 165.385 959.166 165.445L959.385 166.421ZM139.394 15.9997L139.412 15.5001L139.41 15.5L139.394 15.9997ZM405.773 62.1435L405.987 61.6913L405.984 61.6898L405.773 62.1435ZM129.939 34.0471L129.964 33.5477L129.962 33.5476L129.939 34.0471ZM422 76.0354L422.211 75.5823L422.206 75.58L422 76.0354ZM120.602 53.2893L120.633 52.7902L120.63 52.7901L120.602 53.2893ZM438.343 91.1221L438.553 90.6682L438.547 90.6654L438.343 91.1221ZM111.267 72.5594L111.303 72.0607L111.3 72.0605L111.267 72.5594ZM454.69 106.237L454.898 105.782L454.891 105.779L454.69 106.237ZM101.933 91.8295L101.973 91.3311L101.97 91.3308L101.933 91.8295ZM471.037 121.351L471.243 120.896L471.236 120.893L471.037 121.351ZM92.5985 111.1L92.6418 110.601L92.6387 110.601L92.5985 111.1ZM487.383 136.466L487.588 136.01L487.581 136.007L487.383 136.466ZM83.2642 130.37L83.3103 129.872L83.3074 129.872L83.2642 130.37ZM503.73 151.581L503.934 151.124L503.926 151.121L503.73 151.581ZM73.9299 149.64L73.9785 149.142L73.9758 149.142L73.9299 149.64ZM520.076 166.695L520.279 166.238L520.272 166.235L520.076 166.695ZM64.5955 168.91L64.6464 168.412L64.6439 168.412L64.5955 168.91ZM536.423 181.81L536.624 181.352L536.618 181.349L536.423 181.81ZM55.2612 188.18L55.3141 187.683L55.3118 187.683L55.2612 188.18ZM552.77 196.924L552.97 196.466L552.963 196.464L552.77 196.924ZM45.9268 207.45L45.9814 206.953L45.9794 206.953L45.9268 207.45ZM569.116 212.039L569.315 211.58L569.309 211.578L569.116 212.039ZM36.5925 226.72L36.6487 226.223L36.6469 226.223L36.5925 226.72ZM585.463 227.154L585.66 226.694L585.655 226.692L585.463 227.154ZM27.3667 245.98L27.4243 245.483L27.4226 245.483L27.3667 245.98ZM601.918 242.258L602.114 241.798L602.11 241.796L601.918 242.258ZM18.5896 265.195L18.6485 264.698L18.6471 264.698L18.5896 265.195ZM618.822 257.317L619.017 256.857L619.013 256.855L618.822 257.317ZM10.2095 284.371L10.2695 283.875L10.2683 283.874L10.2095 284.371ZM636.122 272.338L636.317 271.877L636.313 271.876L636.122 272.338ZM2.15689 303.515L2.21802 303.018L2.21704 303.018L2.15689 303.515ZM653.751 287.326L653.944 286.865L653.941 286.864L653.751 287.326ZM-5.62289 322.632L-5.56079 322.135L-5.56155 322.135L-5.62289 322.632ZM671.652 302.287L671.844 301.826L671.842 301.825L671.652 302.287ZM-13.1734 341.726L-13.1104 341.23L-13.111 341.23L-13.1734 341.726ZM689.782 317.226L689.974 316.764L689.972 316.764L689.782 317.226ZM-20.5298 360.801L-20.466 360.305L-20.4663 360.305L-20.5298 360.801ZM708.107 332.146L708.298 331.684L708.296 331.683L708.107 332.146ZM-27.7203 379.86L-27.6557 379.364H-27.6559L-27.7203 379.86ZM726.597 347.049L726.787 346.587L726.786 346.586L726.597 347.049ZM-258.79 209.184C-270.687 234.446 -273.705 274.265 -244.176 311.649C-214.662 349.014 -152.702 383.864 -34.8335 399.4L-34.7028 398.409C-152.46 382.887 -214.112 348.097 -243.391 311.03C-272.654 273.982 -269.643 234.577 -257.886 209.61L-258.79 209.184ZM-34.8335 399.4C112.566 418.829 216.387 372.303 328.849 339.61C441.3 306.921 562.545 287.989 745.042 362.401L745.419 361.476C562.659 286.955 441.172 305.917 328.57 338.65C215.98 371.38 112.43 417.803 -34.7028 398.409L-34.8335 399.4ZM745.042 362.401C891.164 421.983 990.153 448.944 1054.54 458.433C1086.73 463.177 1110.29 463.556 1126.78 461.452C1143.23 459.351 1152.75 454.762 1156.69 449.445L1155.89 448.849C1152.2 453.819 1143.05 458.366 1126.65 460.46C1110.29 462.549 1086.82 462.18 1054.68 457.444C990.409 447.971 891.502 421.041 745.419 361.476L745.042 362.401ZM-38.3212 19.2878C1.60349 9.70403 70.9337 -0.189099 149.119 1.29643C227.307 2.78201 314.312 15.6463 389.613 51.5471L390.043 50.6445C314.568 14.6602 227.406 1.78372 149.138 0.296614C70.8679 -1.19053 1.45288 8.71178 -38.5546 18.3154L-38.3212 19.2878ZM389.613 51.5471C483.899 96.5001 603.853 130.26 711.456 150.263C765.259 160.264 815.984 166.828 858.879 169.63C901.762 172.432 936.859 171.477 959.385 166.421L959.166 165.445C936.785 170.469 901.805 171.433 858.945 168.632C816.096 165.833 765.411 159.275 711.638 149.279C604.088 129.287 484.225 95.5478 390.043 50.6445L389.613 51.5471ZM-49.7977 24.6151C-12.9109 17.8792 53.6706 13.6055 139.377 16.4995L139.41 15.5C53.6703 12.6049 -12.991 16.8773 -49.9774 23.6314L-49.7977 24.6151ZM139.375 16.4994C227.924 19.7644 316.479 21.3238 405.563 62.5972L405.984 61.6898C316.686 20.3172 227.92 18.7636 139.412 15.5001L139.375 16.4994ZM405.56 62.5957C502.315 108.245 621.269 141.681 726.814 161.183C779.589 170.934 829.02 177.203 870.655 179.772C912.279 182.341 946.153 181.214 967.793 176.152L967.565 175.178C946.072 180.206 912.318 181.341 870.717 178.774C829.129 176.208 779.739 169.945 726.996 160.2C621.507 140.708 502.641 107.293 405.987 61.6913L405.56 62.5957ZM-60.9998 32.7858C-27.1413 28.895 36.6843 30.2432 129.916 34.5465L129.962 33.5476C36.7566 29.2455 -27.1584 27.8904 -61.114 31.7923L-60.9998 32.7858ZM129.913 34.5464C228.826 39.5929 318.912 29.8386 421.793 76.4907L422.206 75.58C319.099 28.8251 228.709 38.5857 129.964 33.5477L129.913 34.5464ZM421.788 76.4884C521.011 122.834 638.966 155.946 742.453 174.948C794.199 184.449 842.335 190.423 882.712 192.759C923.076 195.094 955.728 193.796 976.481 188.727L976.244 187.756C955.64 192.787 923.111 194.094 882.77 191.76C842.441 189.427 794.347 183.459 742.634 173.964C639.205 154.974 521.337 121.883 422.211 75.5823L421.788 76.4884ZM-72.0914 42.1494C-56.6854 41.6266 -33.7164 43.106 -1.97842 45.4336C29.7479 47.7605 70.2114 50.9327 120.573 53.7885L120.63 52.7901C70.2784 49.9349 29.8257 46.7635 -1.9053 44.4363C-33.6246 42.11 -56.6539 40.625 -72.1254 41.15L-72.0914 42.1494ZM120.57 53.7883C147.872 55.4945 174.087 55.4561 199.867 55.2536C225.651 55.051 250.994 54.6843 276.576 55.7313C327.729 57.8247 379.815 65.5699 438.14 91.5787L438.547 90.6654C380.074 64.5902 327.854 56.829 276.617 54.7321C251.005 53.6839 225.632 54.0511 199.859 54.2536C174.081 54.4561 147.896 54.4941 120.633 52.7902L120.57 53.7883ZM438.133 91.5759C539.825 138.618 656.781 171.406 758.21 189.907C808.926 199.158 855.768 204.837 894.886 206.94C933.991 209.042 965.42 207.571 985.288 202.497L985.04 201.528C965.326 206.563 934.022 208.042 894.94 205.941C855.871 203.842 809.072 198.168 758.39 188.923C657.022 170.434 540.15 137.667 438.553 90.6683L438.133 91.5759ZM-83.1895 51.5372C-69.2885 52.4362 -47.7752 56.0308 -16.1471 60.3C15.4602 64.5664 57.1161 69.4978 111.234 73.0583L111.3 72.0605C57.2099 68.5018 15.5775 63.5731 -16.0133 59.309C-47.5833 55.0476 -69.178 51.4412 -83.1249 50.5393L-83.1895 51.5372ZM111.231 73.0581C141.115 75.2095 169.366 74.7969 196.962 73.8676C224.566 72.938 251.499 71.4924 278.788 71.5731C333.344 71.7345 389.27 77.9979 454.489 106.694L454.891 105.779C389.51 77.0109 333.438 70.7348 278.791 70.5731C251.478 70.4923 224.506 71.9394 196.929 72.8681C169.343 73.7971 141.134 74.2083 111.303 72.0607L111.231 73.0581ZM454.482 106.691C558.641 154.43 674.599 186.894 773.97 204.894C823.657 213.895 869.204 219.28 907.064 221.149C944.91 223.018 975.116 221.375 994.098 216.294L993.839 215.328C975.014 220.367 944.935 222.018 907.113 220.15C869.305 218.284 823.801 212.904 774.148 203.91C674.841 185.922 558.967 153.479 454.898 105.782L454.482 106.691ZM-94.298 60.9183C-69.5291 65.5586 -13.8442 83.7981 101.896 92.3281L101.97 91.3308C-13.6974 82.8062 -69.246 64.5942 -94.1139 59.9354L-94.298 60.9183ZM101.893 92.3279C166.79 97.5186 223.063 89.1842 280.997 87.4143C338.958 85.6436 398.723 90.4253 470.837 121.81L471.236 120.893C398.947 89.4322 339.024 84.6411 280.966 86.4148C222.882 88.1892 166.805 96.5165 101.973 91.3311L101.893 92.3279ZM470.83 121.807C577.458 170.242 692.416 202.382 789.73 219.882C838.387 228.632 882.64 233.722 919.241 235.358C955.828 236.993 984.812 235.179 1002.91 230.092L1002.64 229.129C984.701 234.172 955.848 235.993 919.286 234.359C882.737 232.726 838.529 227.641 789.907 218.897C692.66 201.41 577.783 169.291 471.243 120.896L470.83 121.807ZM-105.417 70.2881C-83.6255 77.7875 -30.7084 101.657 92.5583 111.598L92.6387 110.601C-30.4923 100.671 -83.3063 76.8397 -105.092 69.3426L-105.417 70.2881ZM92.5553 111.598C162.618 117.679 221.859 106.957 283.204 103.255C344.569 99.5523 408.174 102.852 487.185 136.925L487.581 136.007C408.385 101.854 344.612 98.5479 283.144 102.257C221.656 105.967 162.609 116.674 92.6418 110.601L92.5553 111.598ZM487.178 136.922C596.274 186.053 710.234 217.87 805.489 234.869C853.118 243.368 896.076 248.165 931.418 249.567C966.747 250.969 994.509 248.983 1011.72 243.889L1011.44 242.93C994.388 247.976 966.76 249.969 931.458 248.568C896.17 247.168 853.258 242.378 805.665 233.885C710.479 216.898 596.6 185.103 487.588 136.01L487.178 136.922ZM-116.545 79.6417C-97.7352 90.0165 -47.5537 119.517 83.2209 130.868L83.3074 129.872C-47.3059 118.535 -97.3533 89.0851 -116.062 78.7661L-116.545 79.6417ZM83.218 130.868C158.442 137.839 220.655 124.729 285.41 119.095C350.18 113.461 417.625 115.279 503.533 152.04L503.926 151.121C417.824 114.276 350.201 112.455 285.323 118.099C220.43 123.745 158.416 136.832 83.3103 129.872L83.218 130.868ZM503.526 152.037C615.09 201.865 728.052 233.358 821.249 249.856C867.848 258.105 909.513 262.607 943.596 263.776C977.665 264.945 1004.21 262.786 1020.53 257.685L1020.23 256.731C1004.07 261.78 977.673 263.945 943.631 262.777C909.603 261.61 867.986 257.114 821.424 248.872C728.298 232.386 615.417 200.916 503.934 151.124L503.526 152.037ZM-127.674 88.9755C-111.853 102.248 -64.3877 137.378 73.8839 150.138L73.9758 149.142C-64.1309 136.398 -111.393 101.328 -127.031 88.2094L-127.674 88.9755ZM73.8812 150.137C154.265 157.999 219.451 142.501 287.614 134.936C355.789 127.369 427.076 127.705 519.881 167.155L520.272 166.235C427.263 126.698 355.792 126.362 287.504 133.942C219.205 141.523 154.224 156.99 73.9785 149.142L73.8812 150.137ZM519.874 167.152C633.907 217.677 745.87 248.846 837.009 264.844C882.579 272.842 922.949 277.05 955.774 277.985C988.584 278.921 1013.9 276.59 1029.34 271.482L1029.03 270.532C1013.76 275.584 988.585 277.92 955.803 276.986C923.035 276.052 882.714 271.851 837.182 263.859C746.117 247.874 634.233 216.728 520.279 166.238L519.874 167.152ZM-138.793 98.2913C-125.978 114.481 -81.2133 155.24 64.5471 169.408L64.6439 168.412C-80.9643 154.259 -125.424 113.569 -138.009 97.6707L-138.793 98.2913ZM64.5446 169.407C150.087 178.159 218.246 160.274 289.817 150.776C361.397 141.277 436.525 140.131 536.228 182.27L536.618 181.349C436.703 139.121 361.383 140.27 289.686 149.784C217.98 159.3 150.034 177.148 64.6464 168.412L64.5446 169.407ZM536.222 182.267C652.723 233.489 763.687 264.334 852.769 279.831C897.309 287.579 936.385 291.492 967.952 292.194C999.504 292.897 1023.6 290.393 1038.16 285.278L1037.82 284.334C1023.45 289.388 999.497 291.896 967.975 291.195C936.468 290.494 897.442 286.588 852.94 278.846C763.936 263.362 653.05 232.54 536.624 181.352L536.222 182.267ZM-149.895 107.597C-140.109 126.715 -98.0341 173.103 55.2106 188.678L55.3118 187.683C-97.8024 172.121 -139.449 125.81 -149.005 107.142L-149.895 107.597ZM55.2083 188.677C145.909 198.319 217.04 178.046 292.019 166.616C367.004 155.185 445.975 152.557 552.576 197.385L552.963 196.464C446.144 151.544 366.976 154.177 291.869 165.627C216.757 177.078 145.844 197.307 55.3141 187.683L55.2083 188.677ZM552.57 197.383C671.54 249.301 781.505 279.822 868.529 294.818C912.04 302.317 949.822 305.935 980.131 306.404C1010.42 306.872 1033.3 304.197 1046.97 299.073L1046.62 298.137C1033.13 303.192 1010.41 305.872 980.146 305.404C949.9 304.936 912.171 301.324 868.699 293.833C781.755 278.85 671.867 248.352 552.97 196.466L552.57 197.383ZM-160.977 116.904C-154.244 138.947 -114.854 190.965 45.8743 207.947L45.9794 206.953C-114.641 189.982 -153.471 138.053 -160.02 116.612L-160.977 116.904ZM45.8723 207.947C141.729 218.479 215.833 195.819 294.221 182.456C372.611 169.092 455.423 164.983 568.923 212.5L569.309 211.578C455.585 163.967 372.569 168.085 294.053 181.47C215.533 194.856 141.655 217.465 45.9814 206.953L45.8723 207.947ZM568.917 212.498C690.356 265.112 799.323 295.31 884.289 309.806C926.771 317.053 963.259 320.377 992.31 320.613C1021.34 320.848 1043 318 1055.79 312.868L1055.41 311.94C1042.82 316.997 1021.32 319.848 992.318 319.613C963.332 319.377 926.899 316.061 884.457 308.82C799.574 294.338 690.684 264.164 569.315 211.58L568.917 212.498ZM-172.042 126.219C-168.377 151.174 -131.677 208.828 36.5381 227.217L36.6469 226.223C-131.477 207.843 -167.495 150.299 -171.053 126.074L-172.042 126.219ZM36.5363 227.217C137.549 238.639 214.626 213.592 296.421 198.296C378.216 183 464.872 177.409 585.27 227.615L585.655 226.692C465.027 176.39 378.162 181.993 296.237 197.313C214.311 212.633 137.466 237.623 36.6487 226.223L36.5363 227.217ZM585.265 227.613C709.172 280.924 817.141 310.798 900.049 324.793C941.502 331.79 976.696 334.819 1004.49 334.822C1032.26 334.824 1052.7 331.803 1064.6 326.662L1064.21 325.744C1052.5 330.801 1032.23 333.824 1004.49 333.822C976.764 333.819 941.627 330.797 900.215 323.807C817.393 309.826 709.5 279.977 585.66 226.694L585.265 227.613ZM-182.988 135.535C-182.397 163.388 -148.396 226.679 27.3107 246.477L27.4226 245.483C-148.2 225.695 -181.414 162.539 -181.988 135.514L-182.988 135.535ZM27.3091 246.476C133.478 258.788 213.527 231.354 298.729 214.125C383.93 196.897 474.428 189.824 601.726 242.719L602.11 241.796C474.577 188.802 383.865 195.89 298.531 213.145C213.198 230.4 133.387 257.771 27.4243 245.483L27.3091 246.476ZM601.721 242.717C728.096 296.725 835.068 326.275 915.917 339.77C956.341 346.517 990.242 349.251 1016.78 349.02C1043.29 348.789 1062.51 345.596 1073.53 340.444L1073.1 339.538C1062.29 344.595 1043.25 347.789 1016.77 348.02C990.304 348.251 956.463 345.523 916.082 338.783C835.32 325.304 728.426 295.778 602.114 241.798L601.721 242.717ZM-193.478 144.818C-194.717 160.16 -187.515 185.097 -157.105 208.828C-126.702 232.554 -73.0971 255.085 18.5321 265.692L18.6471 264.698C-72.8837 254.103 -126.287 231.61 -156.49 208.04C-186.686 184.475 -193.689 159.844 -192.481 144.898L-193.478 144.818ZM18.5308 265.691C129.854 278.893 212.875 249.072 301.486 229.91C390.092 210.75 484.434 202.194 618.63 257.779L619.013 256.855C484.577 201.171 390.017 209.743 301.274 228.933C212.534 248.122 129.756 277.874 18.6485 264.698L18.5308 265.691ZM618.626 257.777C747.47 312.482 853.443 341.708 932.235 354.702C971.63 361.199 1004.24 363.639 1029.51 363.174C1054.77 362.709 1072.77 359.344 1082.9 354.181L1082.45 353.29C1072.53 358.345 1054.72 361.71 1029.5 362.174C1004.29 362.638 971.748 360.205 932.397 353.715C853.696 340.737 747.8 311.536 619.017 256.857L618.626 257.777ZM-203.567 154.071C-206.338 170.836 -200.593 197.907 -170.305 223.591C-140.027 249.266 -85.2274 273.557 10.1506 284.867L10.2683 283.874C-85.0088 272.576 -139.589 248.326 -169.658 222.828C-199.717 197.339 -205.286 170.605 -202.58 154.234L-203.567 154.071ZM10.1494 284.867C126.628 298.959 212.621 266.75 304.638 245.656C396.651 224.563 494.835 214.525 635.932 272.8L636.313 271.876C494.973 213.5 396.566 223.557 304.415 244.682C212.268 265.805 126.523 297.939 10.2695 283.875L10.1494 284.867ZM635.928 272.798C767.24 328.2 872.215 357.102 948.949 369.595C987.315 375.842 1018.63 377.987 1042.65 377.289C1066.65 376.59 1083.43 373.052 1092.68 367.877L1092.19 367.004C1083.16 372.057 1066.58 375.592 1042.62 376.289C1018.68 376.985 987.43 374.848 949.109 368.608C872.469 356.131 767.571 327.254 636.317 271.877L635.928 272.798ZM-213.327 163.3C-217.626 181.484 -213.342 210.685 -183.176 238.321C-153.024 265.945 -97.03 291.996 2.09674 304.011L2.21704 303.018C-96.8066 291.016 -152.565 265.009 -182.501 237.584C-212.423 210.171 -216.562 181.331 -212.354 163.53L-213.327 163.3ZM2.09576 304.011C123.728 318.992 212.693 284.397 308.118 261.37C403.537 238.344 505.564 226.824 653.56 287.788L653.941 286.864C505.697 225.797 403.444 237.338 307.883 260.398C212.329 283.456 123.617 317.971 2.21802 303.018L2.09576 304.011ZM653.557 287.787C787.338 343.885 891.315 372.464 965.991 384.457C1003.33 390.453 1033.35 392.304 1056.11 391.371C1078.85 390.439 1094.42 386.728 1102.79 381.538L1102.26 380.688C1094.12 385.736 1078.77 389.442 1056.07 390.372C1033.39 391.301 1003.44 389.458 966.149 383.469C891.57 371.492 787.67 342.94 653.944 286.865L653.557 287.787ZM-222.814 172.508C-228.637 192.108 -225.814 223.437 -195.773 253.025C-165.747 282.598 -108.559 310.408 -5.68423 323.128L-5.56155 322.135C-108.332 309.429 -165.268 281.666 -195.071 252.313C-224.859 222.975 -227.569 192.026 -221.856 172.793L-222.814 172.508ZM-5.685 323.128C121.101 338.998 213.038 302.017 311.87 277.057C410.695 252.099 516.566 239.096 671.462 302.75L671.842 301.825C516.695 238.068 410.594 251.093 311.625 276.087C212.664 301.08 120.985 337.976 -5.56079 322.135L-5.685 323.128ZM671.46 302.749C807.708 359.543 910.688 387.799 983.306 399.291C1019.61 405.036 1048.34 406.593 1069.85 405.426C1091.33 404.261 1105.68 400.376 1113.17 395.169L1112.6 394.348C1105.35 399.389 1091.23 403.265 1069.79 404.428C1048.38 405.59 1019.72 404.041 983.462 398.303C910.943 386.827 808.041 358.599 671.844 301.826L671.46 302.749ZM-232.072 181.698C-239.416 202.714 -238.054 236.168 -208.139 267.707C-178.241 299.228 -119.86 328.798 -13.2359 342.222L-13.111 341.23C-119.628 327.82 -177.743 298.3 -207.414 267.018C-237.068 235.755 -238.35 202.694 -231.128 182.028L-232.072 181.698ZM-13.2364 342.222C118.703 358.982 213.611 319.614 315.851 292.721C418.082 265.831 527.797 251.345 689.593 317.689L689.972 316.764C527.921 250.316 417.974 264.825 315.597 291.754C213.229 318.681 118.582 357.959 -13.1104 341.23L-13.2364 342.222ZM689.591 317.688C828.308 375.179 930.29 403.111 1000.85 414.102C1036.13 419.598 1063.56 420.86 1083.81 419.459C1104.04 418.06 1117.18 414.001 1123.78 408.774L1123.16 407.99C1116.8 413.02 1103.93 417.066 1083.74 418.462C1063.59 419.856 1036.23 418.602 1001 413.114C930.545 402.139 828.642 374.235 689.974 316.764L689.591 317.688ZM-241.136 190.873C-249.999 213.304 -250.098 248.881 -220.31 282.369C-190.54 315.838 -130.965 347.169 -20.5933 361.297L-20.4663 360.305C-130.73 346.191 -190.023 314.915 -219.563 281.705C-249.086 248.514 -248.938 213.34 -240.206 191.24L-241.136 190.873ZM-20.5937 361.297C116.5 378.947 214.379 337.193 320.026 308.367C425.664 279.543 539.222 263.575 707.918 332.609L708.296 331.683C539.342 262.544 425.548 278.538 319.763 307.402C213.987 336.263 116.373 377.922 -20.466 360.305L-20.5937 361.297ZM707.916 332.608C849.102 390.796 950.086 418.404 1018.59 428.895C1052.84 434.14 1078.98 435.107 1097.98 433.473C1116.94 431.84 1128.87 427.606 1134.59 422.354L1133.91 421.617C1128.45 426.633 1116.81 430.848 1097.89 432.476C1079 434.102 1052.94 433.143 1018.74 427.906C950.342 417.432 849.437 389.853 708.298 331.684L707.916 332.608ZM-250.034 200.034C-260.415 223.88 -261.974 261.579 -232.315 297.016C-202.673 332.433 -141.905 365.523 -27.7847 380.356L-27.6559 379.364C-141.666 364.546 -202.139 331.513 -231.548 296.374C-260.94 261.256 -259.362 223.967 -249.117 200.434L-250.034 200.034ZM-27.7849 380.356C114.461 398.895 215.312 354.755 324.367 323.996C433.41 293.239 550.812 275.789 726.408 347.512L726.786 346.586C550.929 274.757 433.289 292.235 324.095 323.033C214.913 353.828 114.33 397.87 -27.6557 379.364L-27.7849 380.356ZM726.408 347.512C870.061 406.396 970.048 433.681 1036.49 443.671C1069.71 448.666 1094.56 449.339 1112.3 447.469C1130.01 445.603 1140.73 441.193 1145.57 435.911L1144.83 435.236C1140.26 440.232 1129.86 444.614 1112.2 446.475C1094.57 448.333 1069.81 447.669 1036.64 442.682C970.304 432.709 870.398 405.454 726.787 346.587L726.408 347.512Z" fill="white"/>
</svg>
