<svg width="32" height="32" viewBox="0 0 32 32" fill="none" xmlns="http://www.w3.org/2000/svg">
<path d="M26.9892 14.6777C26.9996 14.6986 27.0048 14.7195 27.0126 14.7431C27.1559 15.3238 27.1428 15.9281 26.9866 16.4931C26.8329 17.0529 26.5386 17.5761 26.1141 17.9998L15.009 29.1539C14.3111 29.855 13.3891 30.2081 12.4698 30.2081C11.5504 30.2081 10.6285 29.8576 9.9305 29.1539L8.34703 27.5635L4.73737 31.1865C4.19826 31.7279 3.48466 32 2.77366 32C2.06006 32 1.34907 31.7279 0.809962 31.1865L0.807357 31.1838C0.268251 30.6424 0 29.9282 0 29.2115C0 28.4973 0.270855 27.7806 0.809962 27.2391L4.41442 23.6187L2.90649 22.1041C2.20591 21.4005 1.85432 20.4718 1.85432 19.5458C1.85432 18.6172 2.20591 17.6912 2.90649 16.9875L13.9543 5.89095C14.4074 5.43579 14.9622 5.12973 15.5481 4.98063C16.155 4.82367 16.793 4.83152 17.392 5.00417C17.3999 5.00678 17.4077 5.0094 17.4155 5.01202L21.5825 0.826617L21.8299 0.578108L21.8664 0.541486C22.2232 0.177879 22.692 0 23.1607 0C23.6295 0 24.0983 0.177879 24.4551 0.536254L31.4661 7.57819C31.8203 7.93395 32 8.40742 32 8.87828C32 9.34914 31.8229 9.82261 31.4661 10.1784L31.1822 10.4635C31.1197 10.5263 31.0546 10.5838 30.9869 10.6388L31.0182 10.6309L26.9892 14.6777ZM20.934 2.58187L15.9727 7.56773C15.6888 7.85286 15.5455 8.22954 15.5455 8.60623C15.5455 8.98292 15.6888 9.35698 15.9727 9.64473L22.4003 16.1007C22.6841 16.3858 23.0592 16.5297 23.4342 16.5297C23.8092 16.5297 24.1843 16.3858 24.4681 16.1007L26.2469 14.3141L29.4295 11.1175C28.9112 11.0782 28.4034 10.8611 28.0075 10.4661L21.5825 4.00752C21.1892 3.61252 20.9731 3.10243 20.934 2.58187ZM23.7467 1.75787L30.2316 8.2714C30.5598 8.601 30.5598 9.13725 30.2316 9.46685C29.9035 9.79645 29.3696 9.79645 29.0414 9.46685L22.5565 2.95332C22.2284 2.62372 22.2284 2.08747 22.5565 1.75787C22.8847 1.42827 23.4186 1.42827 23.7467 1.75787ZM30.914 8.13276L23.903 1.09082C23.6998 0.886782 23.4316 0.784763 23.1607 0.784763C22.8899 0.784763 22.6216 0.886782 22.4185 1.09082L22.1346 1.37857C21.8507 1.6637 21.7075 2.04038 21.7075 2.41707C21.7075 2.79375 21.8507 3.16782 22.1346 3.45557L28.5622 9.91155C28.8461 10.1967 29.2211 10.3406 29.5962 10.3406C29.9712 10.3406 30.3462 10.1967 30.6301 9.91155L30.914 9.62642C31.1197 9.41977 31.2213 9.15033 31.2213 8.8809C31.2213 8.60884 31.1197 8.33941 30.914 8.13276ZM13.1808 7.77438L3.45861 17.5394C2.90909 18.0914 2.63563 18.8186 2.63563 19.5458C2.63563 20.273 2.90909 21.0002 3.45861 21.5522L10.48 28.6046C11.0269 29.1539 11.7484 29.4286 12.4672 29.4286C13.1886 29.4286 13.91 29.1539 14.4543 28.6046L24.0254 18.9913C23.2102 19.1927 22.3117 18.9782 21.6762 18.3399L13.7537 10.3772C13.0558 9.67612 12.8656 8.65331 13.1808 7.77438ZM7.71677 27.0874L4.89102 24.2465L1.35949 27.7937C0.971433 28.1834 0.778709 28.6988 0.778709 29.2141C0.778709 29.7294 0.974038 30.2447 1.35949 30.6345C1.74754 31.0243 2.2606 31.2179 2.77366 31.2179C3.28673 31.2179 3.79979 31.0243 4.18784 30.6345L7.71677 27.0874Z" fill="#2A5275"/>
</svg>
