<svg width="32" height="32" viewBox="0 0 32 32" fill="none" xmlns="http://www.w3.org/2000/svg">
<path fill-rule="evenodd" clip-rule="evenodd" d="M16 0C24.8359 0 32 7.16406 32 16C32 24.8359 24.8359 32 16 32C7.16406 32 0 24.8359 0 16C0 7.16406 7.16406 0 16 0ZM15.9297 16.0417C16.388 16.0417 16.7578 16.4115 16.7578 16.8698C16.7578 17.3281 16.388 17.6979 15.9297 17.6979C15.4714 17.6979 15.1016 17.3281 15.1016 16.8698C15.1016 16.4141 15.474 16.0417 15.9297 16.0417ZM15.9375 13.875C17.5885 13.875 18.9245 15.2135 18.9245 16.862C18.9245 18.513 17.5859 19.849 15.9375 19.849C14.2891 19.849 12.9505 18.5104 12.9505 16.862C12.9505 15.2109 14.2891 13.875 15.9375 13.875ZM3.84896 11.6068C5.00781 8.40104 7.36979 5.69531 10.3333 4.3125C14.4036 2.41406 19.3464 2.29427 23.5339 5.39323C26.0026 7.21875 26.9036 8.71615 28.1354 11.3698C29.0677 13.7214 28.3021 14.487 25.3047 13.1667C19.1094 10.1016 12.8464 10.2396 6.52344 13.1667C4.1901 14.6901 2.88021 13.4193 3.84896 11.6068ZM19.7656 28.3984C24.0938 27.0365 26.6198 24.2813 28.1693 20.7682C29.1771 18.0521 26.0182 17.1302 24.9089 18.9193C24.2448 20.237 23.4531 21.3672 22.4219 22.2448C20.8073 23.6172 18.4688 23.8672 18.1042 26.4531C17.9141 27.7969 18.2214 29.0052 19.7656 28.3984ZM12.3073 28.3984C7.97917 27.0365 5.45313 24.2813 3.90365 20.7682C2.89583 18.0521 6.05469 17.1302 7.16406 18.9193C7.82813 20.237 8.61979 21.3672 9.65104 22.2448C11.2656 23.6172 13.6042 23.8672 13.9688 26.4531C14.1589 27.7969 13.8516 29.0052 12.3073 28.3984Z" fill="#2A5275"/>
</svg>
