<svg width="32" height="26" viewBox="0 0 32 26" fill="none" xmlns="http://www.w3.org/2000/svg">
<path fill-rule="evenodd" clip-rule="evenodd" d="M12.7623 13.5461L11.817 14.5384V12.5674L12.7623 13.5461ZM27.2072 5.79616H27.2775C27.3735 5.79632 27.4683 5.81869 27.5552 5.86168C27.6421 5.90468 27.7188 5.96724 27.7801 6.04492C30.7305 9.25424 32.2929 16.2223 31.9544 20.886C31.9003 22.0173 31.6506 23.1289 31.2175 24.1664C30.7644 25.145 30.1107 25.7874 29.2358 25.9569C28.1212 26.1729 26.728 25.5551 25.0536 23.77C24.8374 23.5404 24.6135 23.308 24.3843 23.0702C23.5438 22.2494 22.7743 21.352 22.0849 20.3884H9.91863C9.22953 21.3564 8.45816 22.2568 7.61402 23.0784C7.38746 23.3135 7.16351 23.5431 6.94997 23.77C5.27555 25.5605 3.88236 26.1783 2.76781 25.9569C1.89284 25.7956 1.23661 25.1423 0.783496 24.1746C0.350676 23.137 0.100972 22.0255 0.0465395 20.8942C-0.2972 16.2005 1.27827 9.19137 4.27297 6.00665C4.33324 5.94166 4.40532 5.89003 4.48494 5.85482C4.56456 5.8196 4.6501 5.80151 4.7365 5.80163H4.80941C6.65571 3.13357 10.7988 3.10623 12.6451 5.80163H14.7049C14.5461 1.71207 15.6268 0.686943 17.2231 0.572129C17.8352 0.558844 18.4467 0.618454 19.046 0.749818C20.2569 0.960309 21.598 1.19267 22.5485 0.203085C22.6086 0.13878 22.6803 0.0876995 22.7594 0.0528297C22.8386 0.0179598 22.9235 0 23.0094 0C23.0952 0 23.1802 0.0179598 23.2593 0.0528297C23.3385 0.0876995 23.4102 0.13878 23.4703 0.203085C23.5309 0.266568 23.579 0.341984 23.6119 0.425012C23.6447 0.508041 23.6616 0.59705 23.6616 0.686943C23.6616 0.776836 23.6447 0.865846 23.6119 0.948874C23.579 1.0319 23.5309 1.10732 23.4703 1.1708C22.0459 2.66338 20.3454 2.37088 18.835 2.10571C18.3307 1.99488 17.8165 1.94082 17.3012 1.94443C16.4393 2.00457 15.8664 2.76453 15.9992 5.80436H19.3611C21.2021 3.1281 25.3505 3.1199 27.1968 5.80436L27.2072 5.79616ZM10.2077 10.1071V11.9278H11.942C13.9055 11.9278 13.9055 15.0441 11.942 15.0441H10.2077V16.8648C10.2077 18.9259 7.23903 18.9259 7.23903 16.8648V15.0469H5.50471C3.54122 15.0469 3.54122 11.9305 5.50471 11.9305H7.23903V10.1071C7.23903 8.04596 10.2077 8.04596 10.2077 10.1071ZM23.7698 8.52162C23.9613 8.72273 24.0917 8.97894 24.1445 9.25786C24.1973 9.53677 24.1702 9.82586 24.0665 10.0886C23.9628 10.3513 23.7872 10.5758 23.562 10.7338C23.3368 10.8918 23.0719 10.9761 22.8011 10.9761C22.5302 10.9761 22.2654 10.8918 22.0401 10.7338C21.8149 10.5758 21.6393 10.3513 21.5356 10.0886C21.4319 9.82586 21.4048 9.53677 21.4576 9.25786C21.5104 8.97894 21.6408 8.72273 21.8323 8.52162C21.9594 8.38772 22.1103 8.28147 22.2766 8.20898C22.4428 8.13648 22.621 8.09916 22.8011 8.09916C22.9811 8.09916 23.1593 8.13648 23.3255 8.20898C23.4918 8.28147 23.6427 8.38772 23.7698 8.52162ZM23.7698 14.7926C23.9613 14.9938 24.0917 15.25 24.1445 15.5289C24.1973 15.8078 24.1702 16.0969 24.0665 16.3596C23.9628 16.6223 23.7872 16.8469 23.562 17.0048C23.3368 17.1628 23.0719 17.2471 22.8011 17.2471C22.5302 17.2471 22.2654 17.1628 22.0401 17.0048C21.8149 16.8469 21.6393 16.6223 21.5356 16.3596C21.4319 16.0969 21.4048 15.8078 21.4576 15.5289C21.5104 15.25 21.6408 14.9938 21.8323 14.7926C21.9594 14.6587 22.1103 14.5525 22.2766 14.48C22.4428 14.4075 22.621 14.3702 22.8011 14.3702C22.9811 14.3702 23.1593 14.4075 23.3255 14.48C23.4918 14.5525 23.6427 14.6587 23.7698 14.7926ZM27.0561 11.5122C27.2476 11.7134 27.3781 11.9696 27.4309 12.2485C27.4837 12.5274 27.4565 12.8165 27.3529 13.0792C27.2492 13.3419 27.0736 13.5665 26.8484 13.7244C26.6231 13.8824 26.3583 13.9667 26.0874 13.9667C25.8165 13.9667 25.5517 13.8824 25.3265 13.7244C25.1012 13.5665 24.9257 13.3419 24.822 13.0792C24.7183 12.8165 24.6911 12.5274 24.7439 12.2485C24.7968 11.9696 24.9272 11.7134 25.1187 11.5122C25.3759 11.2432 25.7243 11.0921 26.0874 11.0921C26.4506 11.0921 26.7989 11.2432 27.0561 11.5122ZM20.4808 11.5122C20.6723 11.7134 20.8027 11.9696 20.8556 12.2485C20.9084 12.5274 20.8812 12.8165 20.7775 13.0792C20.6738 13.3419 20.4983 13.5665 20.273 13.7244C20.0478 13.8824 19.783 13.9667 19.5121 13.9667C19.2412 13.9667 18.9764 13.8824 18.7511 13.7244C18.5259 13.5665 18.3503 13.3419 18.2467 13.0792C18.143 12.8165 18.1158 12.5274 18.1686 12.2485C18.2214 11.9696 18.3519 11.7134 18.5434 11.5122C18.6704 11.3783 18.8214 11.2721 18.9876 11.1996C19.1538 11.1271 19.3321 11.0898 19.5121 11.0898C19.6921 11.0898 19.8703 11.1271 20.0366 11.1996C20.2028 11.2721 20.3538 11.3783 20.4808 11.5122ZM8.76242 9.35812L9.7077 10.3504H7.82755L8.77283 9.35812H8.76242ZM4.79119 13.5461L5.73126 14.5384V12.5674L4.78598 13.5598L4.79119 13.5461ZM8.77283 17.7231L9.71812 16.7308H7.82755L8.77283 17.7231Z" fill="#2A5275"/>
</svg>
