<svg width="32" height="32" viewBox="0 0 32 32" fill="none" xmlns="http://www.w3.org/2000/svg">
<path d="M6.60057 3.82491L22.812 1.45324C23.0621 1.41642 23.2913 1.60971 23.3512 1.89198L24.8046 8.58973C24.8697 8.88734 24.7265 9.18802 24.4816 9.28313L11.4296 15.9318L12.3986 26.8206C12.4376 27.109 12.2866 27.3944 12.0391 27.4711L10.4607 27.9712C10.1924 28.7689 10.5493 29.3304 10.9634 29.9747C11.177 30.3091 11.4036 30.665 11.5937 31.0823C11.7292 31.383 11.5885 31.7573 11.2812 31.9229C10.9712 32.0886 10.6118 31.9782 10.4763 31.6775C10.3174 31.3247 10.1143 31.0086 9.92153 30.708C9.45008 29.9716 9.02812 29.315 9.13231 28.3915L8.27016 28.6646C8.16077 28.6983 8.02532 28.7566 7.91072 28.7474C7.7336 28.7351 7.56951 28.6124 7.49137 28.413L3.00873 16.9688C2.62063 16.7234 2.26639 16.4288 1.94862 16.0975C1.0969 15.2108 0.505636 14.0541 0.213913 12.8054C-0.080415 11.5566 -0.0752057 10.2128 0.255588 8.95178C0.865081 6.65067 2.56333 4.6349 5.55089 4.00286C5.89991 3.92309 6.24633 3.87707 6.60057 3.82491ZM10.4841 16.4135L9.63501 16.8461L9.6298 16.8492C7.57472 17.8739 5.78531 18.012 4.32409 17.5702L8.20765 27.4833L9.73399 27.0016C9.81734 26.9556 9.9085 26.9249 10.0023 26.9188L11.3801 26.4831L10.4841 16.4135ZM5.36595 8.33508C6.62662 7.93622 7.92114 8.81678 8.25975 10.3018C8.59835 11.7867 7.85081 13.3116 6.59015 13.7105C5.32949 14.1093 4.03497 13.2288 3.69636 11.7438C3.35775 10.2588 4.10529 8.73394 5.36595 8.33508ZM26.6722 8.3719C26.5003 8.52223 26.258 8.44246 26.1304 8.19394C26.0054 7.94236 26.0418 7.61713 26.2138 7.46679C27.3911 6.43283 28.4251 6.58317 29.3342 6.7151C30.1156 6.82862 30.785 6.9268 31.2929 5.95727C31.4127 5.73023 31.6523 5.69648 31.8294 5.88057C32.0065 6.06465 32.0534 6.39908 31.9336 6.62612C31.1887 8.04667 30.3265 7.92088 29.3185 7.77361C28.5319 7.65395 27.6359 7.52202 26.6722 8.3719ZM26.0158 5.49091C25.8439 5.64125 25.6017 5.56148 25.474 5.31296C25.349 5.06137 25.3855 4.73615 25.5574 4.58581C26.7347 3.55185 27.7687 3.70219 28.6778 3.83412C29.4592 3.94764 30.1286 4.04582 30.6365 3.07628C30.7563 2.84924 30.9959 2.81549 31.173 2.99958C31.3502 3.18367 31.397 3.5181 31.2772 3.74514C30.5323 5.16569 29.6702 5.0399 28.6621 4.89262C27.8755 4.77297 26.9821 4.64411 26.0158 5.49091ZM25.362 2.60993C25.1901 2.76027 24.9479 2.68049 24.8203 2.43198C24.6952 2.18039 24.7317 1.85516 24.9036 1.70483C26.0809 0.670862 27.115 0.821201 28.024 0.953131C28.8054 1.06665 29.4748 1.16483 29.9827 0.1953C30.1025 -0.031742 30.3422 -0.0654916 30.5193 0.118597C30.6964 0.302685 30.7433 0.637113 30.6235 0.864155C29.8785 2.2847 29.0164 2.15891 28.0084 2.01164C27.2218 1.89198 26.3258 1.76312 25.362 2.60993ZM20.3949 10.1054L18.8243 3.20515L6.70997 4.97853C6.35313 5.03069 6.0041 5.07364 5.65247 5.15342C3.12333 5.71489 1.69337 7.39009 1.19067 9.29541C0.91457 10.3416 0.911965 11.4554 1.1542 12.4955C1.39904 13.5356 1.88611 14.4959 2.59458 15.2323C4.00111 16.6958 6.28801 17.2634 9.24952 15.7876L20.3949 10.1054Z" fill="#2A5275"/>
</svg>
