<svg width="32" height="32" viewBox="0 0 32 32" fill="none" xmlns="http://www.w3.org/2000/svg">
<path d="M16.0528 10.5773C18.9448 10.5773 21.5598 11.5017 23.4559 12.9989C25.3487 14.4936 26.5227 16.5612 26.5227 18.8448C26.5227 21.1285 25.352 23.1934 23.4559 24.6907C21.5631 26.1854 18.9448 27.1124 16.0528 27.1124C13.1608 27.1124 10.5458 26.188 8.64963 24.6907C6.7568 23.196 5.58285 21.1285 5.58285 18.8448C5.58285 16.5612 6.7535 14.4962 8.64963 12.9989C10.5425 11.5017 13.1608 10.5773 16.0528 10.5773ZM7.37345 2.55188C8.62984 2.55188 9.64551 3.3565 9.64551 4.346C9.64551 5.3355 8.62655 6.14013 7.37345 6.14013C6.12036 6.14013 5.1014 5.3355 5.1014 4.346C5.1014 3.3565 6.12036 2.55188 7.37345 2.55188ZM19.5614 3.82781C19.9637 3.82781 20.2935 4.0856 20.2935 4.40589C20.2935 4.72357 19.967 4.98397 19.5614 4.98397C19.1591 4.98397 18.8293 4.72618 18.8293 4.40589C18.8326 4.0856 19.1591 3.82781 19.5614 3.82781ZM22.7304 3.82781C23.1327 3.82781 23.4625 4.0856 23.4625 4.40589C23.4625 4.72357 23.136 4.98397 22.7304 4.98397C22.3281 4.98397 21.9984 4.72618 21.9984 4.40589C21.9984 4.0856 22.3248 3.82781 22.7304 3.82781ZM25.8961 3.82781C26.2984 3.82781 26.6282 4.0856 26.6282 4.40589C26.6282 4.72357 26.3017 4.98397 25.8961 4.98397C25.4938 4.98397 25.1641 4.72618 25.1641 4.40589C25.1641 4.0856 25.4938 3.82781 25.8961 3.82781ZM1.46414 7.40044H30.427V1.5806C30.427 1.46342 30.3677 1.35926 30.2688 1.28115C30.1698 1.20303 30.0379 1.15616 29.8895 1.15616H2.00165C1.85326 1.15616 1.72135 1.20303 1.62242 1.28115C1.5235 1.35926 1.46414 1.46342 1.46414 1.5806V7.40044ZM31.8912 7.67385C31.9604 7.76239 32 7.86655 32 7.97852C32 8.09049 31.9604 8.19464 31.8912 8.28318V30.4194C31.8912 30.8543 31.6669 31.2501 31.3042 31.5365C30.9415 31.8229 30.4402 32 29.8895 32H2.00165C1.45095 32 0.949711 31.8229 0.586974 31.5365C0.224237 31.2475 0 30.8517 0 30.4168V1.5806C0 1.14574 0.224237 0.749939 0.586974 0.463504C0.949711 0.177069 1.45095 0 2.00165 0H29.8895C30.4402 0 30.9415 0.177069 31.3042 0.463504C31.6669 0.749939 31.8912 1.14574 31.8912 1.5806V7.67385ZM30.427 8.55659H1.46414V30.4168C1.46414 30.534 1.5235 30.6381 1.62242 30.7162C1.72135 30.7944 1.85326 30.8412 2.00165 30.8412H29.8895C30.0379 30.8412 30.1698 30.7944 30.2688 30.7162C30.3677 30.6381 30.427 30.534 30.427 30.4168V8.55659ZM7.75927 19.3474C7.43611 19.2198 7.3075 18.9125 7.46579 18.6599C7.62737 18.4074 8.01649 18.3032 8.33636 18.4282C8.47815 18.4829 8.6892 18.5714 8.90354 18.6599C10.1237 19.1677 11.6538 19.8005 12.9398 19.2615C17.2234 17.4569 17.7378 17.9439 18.5721 18.7355C18.8788 19.0245 19.2547 19.3812 20.3858 19.4906C20.709 19.5218 21.1245 19.4568 21.6554 19.2979C22.2556 19.1182 22.9711 18.8318 23.8219 18.4438C24.1319 18.3032 24.5276 18.3865 24.7057 18.6313C24.8838 18.8761 24.7782 19.1885 24.4683 19.3292C23.5482 19.7484 22.7733 20.0583 22.1138 20.2562C21.3817 20.4749 20.765 20.5608 20.2308 20.5087C18.5952 20.3499 18.0346 19.8187 17.5796 19.389C17.1641 18.9958 16.9068 18.7511 13.5565 20.165C11.6636 20.9618 9.7972 20.1859 8.30668 19.5687C8.1319 19.4984 7.97032 19.4307 7.75927 19.3474ZM22.5326 13.7228C20.8739 12.4131 18.582 11.6032 16.0528 11.6032C13.5202 11.6032 11.2317 12.4131 9.57296 13.7228C7.91426 15.0326 6.88871 16.8424 6.88871 18.8396C6.88871 20.8394 7.91426 22.6466 9.57296 23.9564C11.2317 25.2662 13.5235 26.076 16.0528 26.076C18.5853 26.076 20.8739 25.2662 22.5326 23.9564C24.1913 22.6466 25.2168 20.8368 25.2168 18.8396C25.2168 16.8424 24.1913 15.0326 22.5326 13.7228Z" fill="#2A5275"/>
</svg>
