<svg width="32" height="32" viewBox="0 0 32 32" fill="none" xmlns="http://www.w3.org/2000/svg">
<path fill-rule="evenodd" clip-rule="evenodd" d="M2.61979 0H5.52865V6.22523H29.9323C30.5 6.22523 30.9089 6.51761 31.2839 6.99066C31.6589 7.46371 32 8.11744 32 8.83359V25.0718C32 25.7879 31.7682 26.4416 31.3932 26.9147C31.0208 27.3845 30.5 27.6801 29.9323 27.6801H29.1953V29.6972C29.1953 29.9403 29.1146 30.1636 28.987 30.3279L28.9844 30.3312C28.8542 30.4921 28.6771 30.594 28.4844 30.594H16.2188C16.0234 30.594 15.8464 30.4921 15.7161 30.3312C15.7031 30.3148 15.6901 30.295 15.6797 30.2786C15.5729 30.1209 15.5078 29.9173 15.5078 29.6972V27.6801H13.776V29.6972C13.776 29.9435 13.6953 30.1669 13.5677 30.3312C13.5547 30.3476 13.5391 30.364 13.526 30.3772C13.401 30.5119 13.2396 30.594 13.0651 30.594H7.28385C7.08854 30.594 6.91146 30.4921 6.78125 30.3312C6.76823 30.3148 6.75521 30.295 6.74479 30.2786C6.63802 30.1209 6.57292 29.9173 6.57292 29.6972V27.6801H5.52865V32H2.61979V24.7925H1.66667C1.58073 24.7925 1.51042 24.7038 1.51042 24.5954V19.0436C1.51042 18.9352 1.58073 18.8465 1.66667 18.8465H2.61719V13.8072H1.66667C1.58073 13.8072 1.51042 13.7185 1.51042 13.6101V8.05831C1.51042 7.9499 1.58073 7.8612 1.66667 7.8612H2.61719V2.92372H1.15885C0.523437 2.92372 0 2.26671 0 1.46186C0 0.657017 0.520833 0 1.15885 0H2.61979ZM9.71094 22.6802H10.526V21.4319H9.71094V22.6802ZM23.9453 9.92095C25.4844 9.92095 26.8776 10.7094 27.8854 11.9807C28.8932 13.252 29.5182 15.0095 29.5182 16.951C29.5182 18.8925 28.8932 20.65 27.8854 21.9214C26.8776 23.1927 25.4844 23.9811 23.9453 23.9811C22.4063 23.9811 21.013 23.1927 20.0052 21.9214C18.9974 20.65 18.3724 18.8925 18.3724 16.951C18.3724 15.0095 18.9974 13.252 20.0052 11.9807C21.013 10.7094 22.4063 9.92095 23.9453 9.92095ZM27.4193 12.572C26.5313 11.4518 25.3021 10.7586 23.9453 10.7586C22.5885 10.7586 21.362 11.4518 20.4714 12.572C19.5833 13.6922 19.0339 15.2428 19.0339 16.9543C19.0339 18.6658 19.5833 20.2131 20.4714 21.3366C21.3594 22.4568 22.5885 23.15 23.9453 23.15C25.3021 23.15 26.5286 22.4568 27.4193 21.3366C28.3073 20.2164 28.8568 18.6658 28.8568 16.9543C28.8568 15.2428 28.3073 13.6922 27.4193 12.572ZM25.5625 17.6672C25.4844 17.907 25.3724 18.1238 25.2214 18.3176C25.0625 18.5246 24.862 18.702 24.6198 18.8531C24.6172 18.9352 24.6146 19.0108 24.6094 19.0863C24.6016 19.2177 24.5885 19.3524 24.5703 19.4904C24.5 20.0423 24.3516 20.4496 24.2031 20.8537C24.1068 21.1165 24.0104 21.3793 23.9427 21.6684C23.9193 21.7735 23.9115 21.8655 23.9141 21.9509C23.9219 22.0955 23.9688 22.2104 24.0443 22.3024C24.1276 22.4076 24.2474 22.4831 24.3776 22.5324C24.5234 22.5849 24.6849 22.6079 24.8411 22.5948C24.9766 22.5849 25.1198 22.5488 25.2578 22.5028C25.401 22.4535 25.5391 22.3911 25.6719 22.3221C25.7943 22.2597 25.9089 22.1875 26.0182 22.1053C26.1302 22.0232 26.2396 21.9345 26.3438 21.836C26.6953 21.5107 26.9427 21.1559 27.0885 20.8011C27.224 20.4759 27.2734 20.1408 27.2474 19.8156C27.2214 19.4871 27.1172 19.1652 26.9375 18.8564C26.7083 18.4622 26.3594 18.1041 25.901 17.8019C25.8255 17.7526 25.7448 17.7165 25.6641 17.6967C25.6302 17.677 25.5964 17.6705 25.5625 17.6672ZM24.5104 15.1377C24.7031 15.2264 24.8802 15.3578 25.0391 15.5417C25.2109 15.7356 25.3594 15.9786 25.4896 16.2776C25.5495 16.2776 25.612 16.2776 25.6745 16.2809C25.7865 16.2874 25.8932 16.2973 25.9974 16.3104C26.4349 16.3729 26.7656 16.5437 27.0938 16.7145C27.3047 16.8229 27.513 16.9313 27.7526 17.0036C27.7552 17.0036 27.7578 17.0036 27.7604 17.0069C27.8411 17.0299 27.9115 17.0364 27.9766 17.0266C28.0911 17.0102 28.1797 16.9445 28.25 16.8459C28.3281 16.7342 28.3828 16.5831 28.4167 16.4123C28.4531 16.225 28.4609 16.0214 28.4453 15.8275C28.4297 15.6534 28.3984 15.4793 28.3542 15.3052C28.3073 15.1278 28.2526 14.9537 28.1927 14.7894C28.138 14.6416 28.0729 14.4971 28.0052 14.3624C27.9375 14.2277 27.8594 14.0963 27.776 13.9649C27.5026 13.5345 27.2135 13.2422 26.9219 13.0713C26.6563 12.9169 26.3906 12.8677 26.1328 12.9137C25.875 12.9629 25.6224 13.1075 25.388 13.344C25.0859 13.6495 24.8177 14.1061 24.599 14.6975C24.5625 14.796 24.5391 14.8979 24.526 15.003C24.5182 15.049 24.513 15.0917 24.5104 15.1377ZM22.5052 16.2809C22.5729 16.0378 22.6797 15.8144 22.8229 15.6107C22.974 15.3972 23.1693 15.2067 23.4063 15.0424C23.4063 14.9636 23.4063 14.888 23.4089 14.8092C23.4115 14.6712 23.4193 14.5332 23.4323 14.4018C23.4818 13.8466 23.6146 13.4327 23.75 13.0188C23.8359 12.7494 23.9245 12.48 23.9792 12.1877C24 12.0825 24.0052 11.9873 23.9974 11.9051C23.9844 11.7639 23.9323 11.6489 23.8542 11.5602C23.7656 11.4617 23.6458 11.3927 23.5104 11.35C23.362 11.304 23.2005 11.2941 23.0469 11.3171C22.9089 11.3368 22.7682 11.3762 22.6328 11.4321C22.4948 11.4879 22.3568 11.5602 22.2266 11.6391C22.1094 11.708 21.9974 11.7902 21.888 11.8789C21.7786 11.9676 21.6745 12.0628 21.5755 12.1647C21.2344 12.5129 21.0026 12.8775 20.8698 13.2455C20.7474 13.5805 20.7083 13.9156 20.7474 14.2376C20.7865 14.5628 20.901 14.8814 21.0911 15.1771C21.3333 15.5549 21.6979 15.8965 22.1667 16.1692C22.2448 16.2152 22.3255 16.2447 22.4089 16.2612C22.4375 16.2743 22.4714 16.2776 22.5052 16.2809ZM24.8828 15.8899C24.6615 15.614 24.3568 15.4399 24.0208 15.4399C23.6849 15.4399 23.3776 15.614 23.1589 15.8899C22.9375 16.1692 22.8021 16.5535 22.8021 16.9773C22.8021 17.4011 22.9401 17.7887 23.1589 18.0647C23.3802 18.3439 23.6849 18.5147 24.0208 18.5147C24.3568 18.5147 24.6641 18.3406 24.8828 18.0647C25.1042 17.7854 25.2396 17.4011 25.2396 16.9773C25.2422 16.5568 25.1042 16.1692 24.8828 15.8899ZM23.3932 18.7611C23.2005 18.6757 23.0208 18.5476 22.8594 18.3702C22.6849 18.1797 22.5339 17.9398 22.3984 17.6442C22.3385 17.6442 22.276 17.6442 22.2135 17.6442C22.1068 17.6409 21.9974 17.6343 21.8932 17.6212C21.4531 17.5653 21.1198 17.4044 20.7917 17.2401C20.5781 17.135 20.3646 17.0299 20.1302 16.9609C20.0469 16.9379 19.9714 16.9313 19.9063 16.9412C19.7917 16.9609 19.7031 17.0266 19.6354 17.1251C19.5599 17.2368 19.5052 17.3912 19.474 17.5588C19.4401 17.746 19.4349 17.9497 19.4531 18.1435C19.4714 18.3176 19.5052 18.4917 19.5521 18.6626C19.599 18.8432 19.6589 19.0141 19.7214 19.1717C19.7786 19.3163 19.8438 19.4575 19.9141 19.5955C19.987 19.7335 20.0651 19.8649 20.1458 19.9897C20.4245 20.4102 20.7188 20.6993 21.013 20.8636C21.2813 21.0147 21.5469 21.0574 21.8021 21.0081C22.0599 20.9555 22.3099 20.8044 22.5417 20.5613C22.8385 20.2493 23.1016 19.7893 23.3125 19.1915C23.349 19.0929 23.3698 18.9878 23.3802 18.8859C23.388 18.8465 23.3906 18.8038 23.3932 18.7611ZM9.26563 13.0451H14.7891C14.9792 13.0451 15.1328 13.2389 15.1328 13.4787V20.4694C15.1328 20.7092 14.9766 20.903 14.7891 20.903H9.26563C9.07552 20.903 8.92188 20.7059 8.92188 20.4694V13.4787C8.92188 13.2389 9.07552 13.0451 9.26563 13.0451ZM10.7214 15.0752H13.3333C13.4479 15.0752 13.5417 15.1935 13.5417 15.3381V18.6133C13.5417 18.7578 13.4479 18.8761 13.3333 18.8761H10.7214C10.6068 18.8761 10.513 18.7578 10.513 18.6133V15.3381C10.513 15.1935 10.6068 15.0752 10.7214 15.0752ZM16.6719 17.342V18.1961H15.6823V17.342H16.6719ZM16.6719 15.7093V16.5634H15.6823V15.7093H16.6719ZM16.6719 18.9779V20.0062H15.6823V18.9779H16.6719ZM16.6719 13.9025V14.9307H15.6823V13.9025H16.6719ZM7.59115 17.342V18.1961H8.58073V17.342H7.59115ZM7.59115 15.7093V16.5634H8.58073V15.7093H7.59115ZM7.59115 18.9779V20.0062H8.58073V18.9779H7.59115ZM7.59115 13.9025V14.9307H8.58073V13.9025H7.59115ZM12.4401 11.2251H13.1172V12.4735H12.4401V11.2251ZM11.1458 11.2251H11.8229V12.4735H11.1458V11.2251ZM13.7344 11.2251H14.5495V12.4735H13.7344V11.2251ZM9.71094 11.2251H10.526V12.4735H9.71094V11.2251ZM12.4401 22.6802H13.1172V21.4319H12.4401V22.6802ZM11.1458 22.6802H11.8229V21.4319H11.1458V22.6802ZM13.7344 22.6802H14.5495V21.4319H13.7344V22.6802ZM5.52865 7.98275V26.0113H29.3906C29.7552 26.0113 30.0859 25.824 30.3255 25.5185C30.5651 25.213 30.7161 24.7958 30.7161 24.3392V9.65486C30.7161 9.19495 30.5677 8.77774 30.3255 8.47552C30.0885 8.17329 29.7552 7.98275 29.3932 7.98275H5.52865ZM28.2917 27.6801H26.6172C26.6432 27.7524 26.6589 27.8312 26.6589 27.9166V29.4541H28.2917V27.6801ZM25.7943 27.6801H23.888C23.9141 27.7524 23.9297 27.8312 23.9297 27.9166V29.4541H25.7552V27.9166C25.7552 27.8345 25.7682 27.7524 25.7943 27.6801ZM23.0651 27.6801H21.1563C21.1823 27.7524 21.1979 27.8312 21.1979 27.9166V29.4541H23.0234V27.9166C23.0234 27.8345 23.0391 27.7524 23.0651 27.6801ZM20.3359 27.6801H18.4297C18.4557 27.7524 18.4714 27.8312 18.4714 27.9166V29.4541H20.2969V27.9166C20.2943 27.8345 20.3099 27.7524 20.3359 27.6801ZM17.6068 27.6801H16.4115V29.4541H17.5651V27.9166C17.5651 27.8345 17.5807 27.7524 17.6068 27.6801ZM12.8724 27.6801H11.7318C11.7578 27.7524 11.7734 27.8312 11.7734 27.9166V29.4541H12.8724V27.6801V27.6801ZM10.9115 27.6801H9.27604C9.30208 27.7524 9.31771 27.8312 9.31771 27.9166V29.4541H10.8724V27.9166C10.8698 27.8345 10.8854 27.7524 10.9115 27.6801ZM8.45313 27.6801H7.47396V29.4541H8.41146V27.9166C8.41146 27.8345 8.42708 27.7524 8.45313 27.6801Z" fill="#2A5275"/>
</svg>
