<svg width="32" height="20" viewBox="0 0 32 20" fill="none" xmlns="http://www.w3.org/2000/svg">
<path fill-rule="evenodd" clip-rule="evenodd" d="M0.661458 18.5619H3.9401C3.69792 18.4938 3.51563 18.2499 3.51563 17.9662V0.615516C3.51563 0.277975 3.77083 0 4.08073 0H27.7708C28.0807 0 28.3359 0.277975 28.3359 0.615516V17.9634C28.3359 18.2499 28.1563 18.491 27.9115 18.5591H31.3385C31.7031 18.5591 32 18.8824 32 19.2795C32 19.6766 31.7031 20 31.3385 20H0.661458C0.296875 20 0 19.6766 0 19.2795C0 18.8853 0.296875 18.5619 0.661458 18.5619ZM4.48177 0.964402H27.4479V17.7904H4.48177V0.964402ZM15.0703 18.8314H16.9297C17.1042 18.8314 17.2474 18.9874 17.2474 19.1774C17.2474 19.3675 17.1042 19.5235 16.9297 19.5235H15.0703C14.8958 19.5235 14.7526 19.3675 14.7526 19.1774C14.7526 18.9845 14.8958 18.8314 15.0703 18.8314Z" fill="#2A5275"/>
</svg>
