<svg width="32" height="32" viewBox="0 0 32 32" fill="none" xmlns="http://www.w3.org/2000/svg">
<path d="M19.3359 31.9965C19.0521 31.9965 18.8203 31.6823 18.8203 31.2975C18.8203 30.9127 19.0521 30.5986 19.3359 30.5986H22.9375L21.1042 20.2731H17.5703C17.2865 20.2731 17.0547 19.959 17.0547 19.5742V15.9029H13.5703C12.7708 15.9029 12.0469 15.4617 11.5208 14.7486C11.2188 14.3391 10.9818 13.8378 10.8359 13.2836H7.21094C7.0026 13.2836 6.8151 13.1671 6.67708 12.9836C6.66146 12.9624 6.64583 12.9377 6.63281 12.913C6.52344 12.7365 6.45833 12.507 6.45833 12.2599V8.83927H0.515625C0.231771 8.83927 0 8.5251 0 8.14032C0 7.75554 0.231771 7.44137 0.515625 7.44137H6.45573V4.22195C6.45573 3.93955 6.54167 3.68538 6.67708 3.49829C6.8125 3.31473 7.0026 3.19824 7.21094 3.19824H10.7214C10.8333 2.4075 11.1172 1.70149 11.5208 1.15433C12.0469 0.441258 12.7734 0 13.5703 0H26.1328C27.7474 0 29.2135 0.893105 30.276 2.3369C31.3385 3.77716 32 5.76459 32 7.95323C32 10.1419 31.3411 12.1293 30.276 13.5696C29.2135 15.0098 27.7474 15.9065 26.1328 15.9065H25.2135L28.3333 30.8916C28.3932 31.0081 28.4297 31.1493 28.4297 31.301C28.4297 31.6858 28.1979 32 27.9141 32H19.3359V31.9965ZM10.6693 11.8857V4.59614H7.48698V11.8822H10.6693V11.8857ZM11.7031 4.00309C11.7135 4.07369 11.7214 4.14782 11.7214 4.22195V12.2634C11.7214 12.2776 11.7214 12.2952 11.7214 12.3093C11.776 12.8706 11.9714 13.3789 12.2552 13.7637C12.5938 14.2226 13.0599 14.5085 13.5755 14.5085H17.0573V1.3979H13.5703C13.0573 1.3979 12.5911 1.68384 12.25 2.14275C11.9115 2.60165 11.7005 3.23354 11.7005 3.92896V4.00309H11.7031ZM18.0859 1.3979V14.5015H26.1354C27.4635 14.5015 28.6719 13.7637 29.5495 12.5776C30.4271 11.388 30.9688 9.75003 30.9688 7.9497C30.9688 6.14937 30.4245 4.51142 29.5495 3.32179C28.6719 2.13216 27.4635 1.3979 26.1354 1.3979H18.0859V1.3979ZM18.0859 15.9029V18.8717H20.8542L20.3255 15.9029H18.0859ZM21.3906 15.9453L23.974 30.4856H27.1771L24.151 15.9453H21.3906Z" fill="#2A5275"/>
</svg>
