<svg width="18" height="32" viewBox="0 0 18 32" fill="none" xmlns="http://www.w3.org/2000/svg">
<path d="M3.14811 0H14.8519C15.7178 0 16.5055 0.364583 17.076 0.953125C17.6466 1.54167 18 2.35417 18 3.2474V28.7526C18 29.6458 17.6466 30.4583 17.076 31.0469C16.5055 31.6354 15.7178 32 14.8519 32H3.14811C2.28219 32 1.49453 31.6354 0.923983 31.0469C0.353436 30.4583 0 29.6458 0 28.7526V3.2474C0 2.35417 0.353436 1.54167 0.923983 0.953125C1.49453 0.364583 2.28219 0 3.14811 0ZM7.30351 29.4271C7.09397 29.4271 6.92482 29.2526 6.92482 29.0365C6.92482 28.8203 7.09397 28.6458 7.30351 28.6458H10.7672C10.9767 28.6458 11.1459 28.8203 11.1459 29.0365C11.1459 29.2526 10.9767 29.4271 10.7672 29.4271H7.30351ZM6.98036 1.86458C7.31108 1.86458 7.58121 2.14323 7.58121 2.48438C7.58121 2.82552 7.31108 3.10417 6.98036 3.10417C6.64965 3.10417 6.37952 2.82552 6.37952 2.48438C6.37952 2.14323 6.64965 1.86458 6.98036 1.86458ZM9 1.86458C9.33071 1.86458 9.60084 2.14323 9.60084 2.48438C9.60084 2.82552 9.33071 3.10417 9 3.10417C8.66676 3.10417 8.39916 2.82552 8.39916 2.48438C8.39916 2.14323 8.66928 1.86458 9 1.86458ZM11.0196 1.86458C11.3504 1.86458 11.6205 2.14323 11.6205 2.48438C11.6205 2.82552 11.3504 3.10417 11.0196 3.10417C10.6864 3.10417 10.4188 2.82552 10.4188 2.48438C10.4188 2.14323 10.6889 1.86458 11.0196 1.86458ZM0.757363 25.8568H17.2452V5.0026H0.757363V25.8568ZM17.2452 26.638H0.757363V28.7526C0.757363 29.4297 1.02749 30.0469 1.45919 30.4948C1.89341 30.9427 2.49173 31.2188 3.14811 31.2188H14.8519C15.5083 31.2188 16.1066 30.9401 16.5408 30.4948C16.975 30.0469 17.2426 29.4297 17.2426 28.7526V26.638H17.2452ZM0.757363 4.22135H17.2452V3.2474C17.2452 2.57031 16.975 1.95313 16.5433 1.50521C16.1091 1.05729 15.5108 0.78125 14.8519 0.78125H3.14811C2.49173 0.78125 1.89341 1.05729 1.45919 1.50521C1.02496 1.95313 0.757363 2.57031 0.757363 3.2474V4.22135Z" fill="#2A5275"/>
</svg>
