<svg width="24" height="24" viewBox="0 0 24 24" fill="none" xmlns="http://www.w3.org/2000/svg">
<path d="M8.38164 21.7034C9.20955 21.7034 9.88071 21.0394 9.88071 20.2203C9.88071 19.4011 9.20955 18.7371 8.38164 18.7371C7.55372 18.7371 6.88257 19.4011 6.88257 20.2203C6.88257 21.0394 7.55372 21.7034 8.38164 21.7034Z" fill="#BFCBD6"/>
<path d="M17.4893 21.7034C18.3173 21.7034 18.9884 21.0394 18.9884 20.2203C18.9884 19.4011 18.3173 18.7371 17.4893 18.7371C16.6614 18.7371 15.9903 19.4011 15.9903 20.2203C15.9903 21.0394 16.6614 21.7034 17.4893 21.7034Z" fill="#BFCBD6"/>
<path d="M21.5402 4.13853C21.4782 4.06292 21.4 4.00183 21.3113 3.95966C21.2226 3.91749 21.1256 3.89529 21.0272 3.89464H10.0661C9.61737 3.89464 9.2998 4.33323 9.43984 4.75953C9.52872 5.03009 9.7813 5.21298 10.0661 5.21298H20.1544L18.3755 12.1455H8.38164L5.33685 3.58484C5.30392 3.48363 5.24673 3.3918 5.17016 3.31719C5.09359 3.24259 4.99992 3.18741 4.89713 3.15638L2.16548 2.32583C2.08149 2.30029 1.99323 2.29137 1.90576 2.29958C1.81828 2.30779 1.73329 2.33297 1.65565 2.37367C1.49884 2.45588 1.38146 2.59634 1.32933 2.76417C1.27721 2.932 1.2946 3.11344 1.37769 3.26858C1.46078 3.42372 1.60276 3.53985 1.77239 3.59143L4.16425 4.31651L7.22236 12.8969L6.1297 13.7802L6.04308 13.8659C5.77281 14.174 5.61961 14.5658 5.60988 14.9737C5.60016 15.3816 5.7345 15.78 5.98978 16.1005C6.17138 16.319 6.40213 16.4924 6.66359 16.6068C6.92505 16.7213 7.20996 16.7736 7.49552 16.7596H18.6153C18.792 16.7596 18.9615 16.6902 19.0864 16.5666C19.2114 16.4429 19.2816 16.2753 19.2816 16.1005C19.2816 15.9256 19.2114 15.758 19.0864 15.6344C18.9615 15.5107 18.792 15.4413 18.6153 15.4413H7.38892C7.3122 15.4387 7.23745 15.4166 7.17189 15.3771C7.10634 15.3375 7.05219 15.282 7.01468 15.2157C6.97717 15.1494 6.95757 15.0747 6.95777 14.9988C6.95797 14.9228 6.97796 14.8482 7.01582 14.7821L8.62149 13.4638H18.9085C19.0625 13.4675 19.213 13.4183 19.3345 13.3246C19.456 13.2308 19.5409 13.0983 19.5747 12.9497L21.6867 4.69883C21.707 4.60056 21.7043 4.49901 21.6789 4.40191C21.6535 4.30482 21.6061 4.21474 21.5402 4.13853Z" fill="#BFCBD6"/>
<path fill-rule="evenodd" clip-rule="evenodd" d="M21.0272 3.89464C21.1256 3.89529 21.2226 3.91749 21.3113 3.95966C21.4 4.00183 21.4782 4.06292 21.5402 4.13853C21.6061 4.21474 21.6535 4.30482 21.6789 4.40191C21.7043 4.49901 21.707 4.60056 21.6867 4.69883L19.5747 12.9497C19.5409 13.0983 19.456 13.2308 19.3345 13.3246C19.213 13.4183 19.0625 13.4675 18.9085 13.4638H8.62149L7.01582 14.7821C6.97796 14.8482 6.95797 14.9228 6.95777 14.9988C6.95757 15.0747 6.97717 15.1494 7.01468 15.2157C7.05219 15.282 7.10634 15.3375 7.17189 15.3771C7.23745 15.4166 7.3122 15.4387 7.38892 15.4413H18.6153C18.792 15.4413 18.9615 15.5107 19.0864 15.6344C19.2114 15.758 19.2816 15.9256 19.2816 16.1005C19.2816 16.2753 19.2114 16.4429 19.0864 16.5666C18.9615 16.6902 18.792 16.7596 18.6153 16.7596H7.49552C7.20996 16.7736 6.92505 16.7213 6.66359 16.6068C6.40213 16.4924 6.17138 16.319 5.98978 16.1005C5.7345 15.78 5.60016 15.3816 5.60988 14.9737C5.61961 14.5658 5.77281 14.174 6.04308 13.8659L6.1297 13.7802L7.22236 12.8969L4.16425 4.31651L1.77239 3.59143C1.60276 3.53985 1.46078 3.42372 1.37769 3.26858C1.2946 3.11344 1.27721 2.932 1.32933 2.76417C1.38146 2.59634 1.49884 2.45588 1.65565 2.37367C1.73329 2.33297 1.81828 2.30779 1.90576 2.29958C1.99323 2.29137 2.08149 2.30029 2.16548 2.32583L4.89713 3.15638C4.99992 3.18741 5.09359 3.24259 5.17016 3.31719C5.24673 3.3918 5.30392 3.48363 5.33685 3.58484L8.38164 12.1455H18.3755L20.1544 5.21298H10.0661C9.7813 5.21298 9.52872 5.03009 9.43984 4.75953C9.2998 4.33323 9.61737 3.89464 10.0661 3.89464H21.0272ZM19.7805 5.5096H10.0631C9.65012 5.5096 9.28387 5.24441 9.155 4.8521C8.95195 4.23397 9.41242 3.59802 10.0631 3.59802H21.0291C21.1718 3.59896 21.3125 3.63116 21.4412 3.6923C21.5686 3.75289 21.681 3.8404 21.7705 3.94866C21.8648 4.05852 21.9327 4.18807 21.9692 4.32759C22.006 4.46838 22.0099 4.61562 21.9805 4.75811L21.9792 4.76435L19.8672 13.0148M19.7805 5.5096L18.135 11.8488H8.60136L5.62275 3.4955L5.62224 3.49393C5.57449 3.34718 5.49156 3.21403 5.38054 3.10585C5.26959 2.99775 5.13387 2.91778 4.98495 2.87276L2.25356 2.04229C2.13193 2.00531 2.00412 1.9924 1.87745 2.00428C1.75077 2.01617 1.6277 2.05263 1.51527 2.11157C1.2882 2.23061 1.11823 2.43402 1.04274 2.67704C0.967261 2.92007 0.99245 3.18281 1.11277 3.40747C1.23309 3.63212 1.43868 3.80029 1.68433 3.87497L3.92591 4.5545L6.87513 12.7946L5.92834 13.5599L5.82359 13.6636L5.81664 13.6715C5.50064 14.0318 5.32153 14.4898 5.31015 14.9667C5.29878 15.4436 5.45585 15.9095 5.75432 16.2841L5.75821 16.2889C5.96952 16.5431 6.23803 16.7449 6.54228 16.8781C6.84417 17.0102 7.17293 17.0712 7.50264 17.0563H18.6153C18.8715 17.0563 19.1173 16.9556 19.2984 16.7763C19.4796 16.5971 19.5814 16.354 19.5814 16.1005C19.5814 15.847 19.4796 15.6039 19.2984 15.4246C19.1172 15.2454 18.8715 15.1447 18.6153 15.1447H7.39542C7.37154 15.1433 7.34835 15.1361 7.32789 15.1238C7.30637 15.1108 7.28859 15.0925 7.27627 15.0708C7.26395 15.049 7.25752 15.0245 7.25758 14.9995C7.25761 14.9881 7.25901 14.9767 7.26172 14.9657L8.72969 13.7604H18.9051C19.1271 13.7649 19.3438 13.6936 19.5189 13.5585C19.695 13.4226 19.8181 13.2303 19.8672 13.0148M10.1805 20.2203C10.1805 21.2032 9.37514 22 8.38164 22C7.38814 22 6.58275 21.2032 6.58275 20.2203C6.58275 19.2373 7.38814 18.4405 8.38164 18.4405C9.37514 18.4405 10.1805 19.2373 10.1805 20.2203ZM19.2882 20.2203C19.2882 21.2032 18.4828 22 17.4893 22C16.4958 22 15.6905 21.2032 15.6905 20.2203C15.6905 19.2373 16.4958 18.4405 17.4893 18.4405C18.4828 18.4405 19.2882 19.2373 19.2882 20.2203ZM8.38164 21.7034C9.20955 21.7034 9.88071 21.0394 9.88071 20.2203C9.88071 19.4011 9.20955 18.7371 8.38164 18.7371C7.55372 18.7371 6.88257 19.4011 6.88257 20.2203C6.88257 21.0394 7.55372 21.7034 8.38164 21.7034ZM17.4893 21.7034C18.3173 21.7034 18.9884 21.0394 18.9884 20.2203C18.9884 19.4011 18.3173 18.7371 17.4893 18.7371C16.6614 18.7371 15.9903 19.4011 15.9903 20.2203C15.9903 21.0394 16.6614 21.7034 17.4893 21.7034Z" fill="#BFCBD6"/>
</svg>
